
<svg width="999.9999999999999" height="999.9999999999999" xmlns="http://www.w3.org/2000/svg">
    <g>
        <title>background</title>
        <rect fill="none" id="canvas_background" height="402" width="582" y="-1" x="-1"/>
    </g>
    <g>
        <title>Layer 1</title>
        <g id="svg_1">
            <g id="svg_2" transform="translate(0,512) scale(0.10000000149011612,-0.10000000149011612) ">
                <path fill="#dedede" id="svg_3" d="m7870.149878,4994.1c-411.4,-115.4 -761.3,-534.5 -1215.1,-1459.3c-138.4,-280.7 -192.3,-373 -201.9,-346.1c-73,228.8 -253.8,469.1 -436.4,584.5c-84.6,51.9 -111.5,82.7 -128.8,140.3c-59.6,201.9 -267.3,419.1 -482.6,507.6c-119.2,50 -128.8,59.6 -157.6,142.3c-101.9,284.5 -440.3,448 -732.5,348c-111.5,-38.4 -111.5,-38.4 -221.1,0c-150,53.8 -324.9,40.4 -461.4,-34.6c-125,-67.3 -276.9,-228.8 -319.2,-338.4c-26.9,-71.1 -44.2,-88.4 -140.3,-130.7c-217.3,-92.3 -423,-363.4 -455.7,-596c-13.5,-92.3 -13.5,-92.3 -151.9,-159.6c-386.5,-192.3 -588.3,-642.2 -461.4,-1036.3c7.7,-25 -11.5,-84.6 -53.8,-165.3c-57.7,-115.4 -63.4,-142.3 -63.4,-290.3c0,-92.3 5.8,-190.3 15.4,-219.2c13.5,-51.9 9.6,-50 -96.1,36.5c-161.5,132.7 -326.8,203.8 -494.1,215.3c-136.5,7.7 -140.4,7.7 -190.3,-53.8c-113.4,-132.7 -19.2,-288.4 173,-288.4c96.1,-1.9 213.4,-55.8 311.5,-146.1l80.8,-71.1l-163.4,-61.5c-511.4,-192.3 -742.1,-524.9 -667.2,-959.4c17.3,-94.2 17.3,-146.1 1.9,-199.9c-17.3,-55.8 7.7,-496.1 123,-2138c78.8,-1136.3 153.8,-2132.2 165.3,-2211c44.2,-321.1 251.9,-596 567.2,-751.7l169.2,-84.6l2607.1,-5.8c2343.7,-3.8 2614.8,-1.9 2710.9,26.9c240.3,69.2 446,221.1 584.5,432.6c146.1,221.1 134.6,125 305.7,2591.7l157.7,2245.6l-40.4,55.8c-23.1,30.8 -65.4,69.2 -96.1,84.6c-28.8,15.4 -55.7,28.8 -59.6,30.8c-1.9,1.9 38.5,153.8 90.4,340.3c246.1,863.3 396.1,1745.7 446,2609c28.8,469.1 11.5,586.4 -130.7,869c-200.3,399.8 -536.7,584.4 -888.6,486.3zm340.3,-348c150,-61.5 263.4,-221.1 324.9,-455.6c25,-96.1 26.9,-175 17.3,-417.2c-36.5,-874.8 -221.1,-1932.2 -490.3,-2816.6c-130.6,-432.6 -96,-382.7 -359.4,-503.8c-198,-92.3 -246.1,-105.7 -353.8,-109.6c-94.2,-1.9 -144.2,7.7 -201.9,38.5c-42.3,23.1 -142.3,75 -223,117.3c-192.3,101.9 -373,134.6 -574.9,103.8c-138.4,-21.1 -246.1,-65.4 -482.6,-196.1c-59.6,-32.7 -126.9,-55.8 -148,-51.9c-38.5,5.8 -34.6,26.9 100,428.7c249.9,749.8 373,1032.4 969,2239.8c432.6,872.9 597.9,1161.3 792.1,1370.8c223,244.3 442.2,330.8 630.6,251.9zm-3975.9,-78.8c26.9,-17.3 76.9,-57.7 111.5,-90.4l61.5,-57.7l73.1,69.2c92.3,88.4 138.4,111.5 230.7,111.5c157.7,0 244.2,-130.7 223,-336.5l-13.5,-125l144.2,0c317.2,0 488.3,-146.1 524.9,-446.1l11.5,-107.7l119.2,-44.2c163.4,-59.6 338.4,-232.6 384.5,-380.7c40.4,-128.8 42.3,-332.6 1.9,-449.9c-46.1,-134.6 -65.4,-142.3 -175,-65.4c-50,36.5 -150,98 -221.1,136.5c-125,69.2 -155.7,109.6 -109.6,138.4c76.9,46.1 115.4,284.5 73.1,436.4c-40.4,146.1 -219.2,282.6 -369.1,282.6c-119.2,0 -1130.5,-228.8 -1211.3,-274.9c-86.5,-48.1 -178.8,-180.7 -194.2,-278.8c-15.4,-90.4 30.8,-275 88.4,-351.9c25,-32.7 80.7,-80.7 126.9,-107.7c44.2,-26.9 80.8,-55.8 80.8,-67.3c0,-9.6 -51.9,-88.4 -115.4,-173c-176.9,-232.6 -269.2,-448 -269.2,-621c0,-59.6 -1.9,-59.6 -167.3,103.8c-334.5,328.8 -630.6,390.3 -990.1,211.5c-61.5,-30.8 -115.4,-55.7 -121.1,-55.7s-9.6,50 -9.6,111.5c0,128.8 36.5,200 150,292.2l75,59.6l-67.3,134.6c-59.6,117.3 -69.2,151.9 -67.3,263.4c1.9,317.2 182.6,492.2 530.6,517.2c92.3,5.8 167.3,17.3 167.3,23.1c0,5.8 -13.5,59.6 -28.8,117.3c-55.8,207.6 -26.9,353.8 94.2,473c82.7,84.6 178.8,123.1 303.8,123.1c121.1,0 130.7,9.6 130.7,142.3c0,146.1 44.2,240.3 134.6,284.6c84.7,44.4 226.9,44.4 288.5,2.1zm1105.5,-1334.3c7.7,-32.7 9.6,-63.4 3.8,-67.3c-3.8,-5.8 -244.2,-61.5 -532.6,-125c-553.7,-121.1 -555.6,-121.1 -557.6,-23.1c0,36.5 17.3,46.1 140.3,73.1c75,15.4 307.6,67.3 513.3,113.4c205.7,46.1 384.5,84.6 398,86.5c11.7,2 27.1,-24.9 34.8,-57.6zm-28.9,-559.5c44.2,-90.4 65.4,-107.7 240.3,-205.7c190.3,-107.7 394.1,-280.7 394.1,-336.5c0,-15.4 -51.9,-151.9 -113.4,-303.8l-115.4,-273l-92.3,-32.7c-138.4,-46.1 -271.1,-119.2 -496,-265.3c-284.6,-188.4 -374.9,-221.1 -628.7,-221.1c-111.5,-1.9 -209.6,3.8 -215.3,9.6c-5.8,5.8 -38.5,140.4 -71.1,298c-88.4,428.7 -67.3,546 167.3,853.6c132.7,175 165.3,249.9 157.7,351.8l-5.8,78.8l317.2,71.1c175,38.5 338.4,71.1 365.3,71.1c38.5,2.2 57.7,-17 96.1,-95.9zm-2105.2,-888.2c119.2,-55.7 263.4,-205.7 399.9,-417.2c198,-305.7 248,-453.7 249.9,-747.9c0,-207.6 -13.5,-269.2 -59.6,-269.2c-17.3,0 -136.5,51.9 -263.4,115.4c-253.8,128.8 -403.8,165.3 -586.4,144.2c-150,-17.3 -213.4,-38.4 -438.3,-150c-186.5,-92.3 -209.6,-98.1 -340.3,-98.1c-128.8,0 -155.7,5.8 -292.2,76.9c-82.7,44.2 -198,103.8 -255.7,134.6c-57.7,30.8 -113.4,65.4 -121.1,75c-7.7,11.5 -11.5,76.9 -9.6,146.1c11.5,238.4 115.4,334.5 503.7,471c274.9,94.2 342.2,132.7 557.6,317.2c282.5,242.4 457.4,296.2 655.5,202zm2245.6,-986.3c-57.7,-178.8 -107.7,-334.5 -111.5,-346.1c-5.8,-17.3 -46.1,-3.8 -132.7,42.3c-221.1,123 -509.5,151.9 -732.5,75c-82.7,-26.9 -105.7,-15.4 -105.7,61.5c0,36.5 13.5,42.3 169.2,51.9c309.5,23.1 492.2,92.3 819,309.5c105.8,69.2 194.2,126.9 196.1,126.9s-44.2,-144.1 -101.9,-321zm-2051.4,-657.5c299.9,-153.9 442.2,-178.9 678.6,-119.3c86.5,21.2 201.9,61.5 257.6,90.4c294.2,153.8 288.4,151.9 421.1,151.9c121.1,0 144.2,-7.7 365.3,-121.1c150,-75 278.8,-128.8 349.9,-140.4c211.5,-38.4 438.4,15.4 694.1,161.5c165.3,96.1 176.9,100 317.2,100c140.4,0 151.9,-3.8 317.2,-100c213.4,-121.1 349.9,-163.4 546,-163.4c192.3,0 265.3,21.1 567.2,159.6c136.5,63.4 251.9,109.6 257.6,103.8c5.8,-5.8 -53.8,-955.5 -134.6,-2111c-134.6,-1914.9 -150,-2109.1 -190.3,-2212.9c-55.8,-151.9 -182.6,-280.7 -332.6,-336.5l-111.5,-40.4l-2597.5,3.8l-2599.4,5.8l-82.7,44.2c-132.7,71.1 -224.9,167.3 -282.6,296.1l-53.8,117.3l-148,2097.6c-80.7,1153.5 -146.1,2099.5 -144.2,2103.3c1.9,1.9 69.2,-28.8 146.1,-71.1c196.2,-103.8 319.2,-136.5 526.9,-136.5c207.6,0 330.7,32.7 524.9,136.5c284.5,151.9 378.7,149.9 707.5,-19.2z"/>
                <path fill="#dedede" id="svg_4" d="m8148.949878,3848.2c-26.9,-21.1 -50,-51.9 -50,-69.2c0,-15.4 -30.8,-59.6 -67.3,-96.1c-61.5,-61.5 -75,-67.3 -150,-55.8c-44.2,5.8 -128.8,17.3 -188.4,23.1c-211.5,23.1 -423,-80.8 -549.9,-269.2c-98,-144.2 -80.8,-259.6 44.2,-311.5c96.1,-40.4 169.2,-3.8 234.6,117.3c69.2,126.9 132.7,157.7 257.6,125c51.9,-11.5 138.4,-23.1 194.2,-21.2c263.4,1.9 522.9,200 546,413.4c9.6,73.1 3.9,92.3 -38.4,134.6c-61.5,61.6 -159.5,67.3 -232.6,9.6z"/>
                <path fill="#dedede" id="svg_5" d="m7958.649878,2754.3c-26.9,-21.2 -67.3,-78.8 -90.4,-126.9c-63.4,-128.8 -134.6,-167.3 -278.8,-150c-240.3,26.9 -455.7,17.3 -551.8,-25c-184.6,-84.6 -361.4,-296.1 -361.4,-432.6c0,-98 67.3,-169.2 159.6,-169.2c82.7,0 136.5,42.3 192.3,153.8c48.1,96.1 146.1,173 223,173c26.9,0 109.6,-13.5 180.7,-32.7c107.7,-25 153.8,-26.9 242.3,-11.5c292.2,55.7 542.2,280.7 540.2,488.3c-1.9,142.4 -146.1,217.4 -255.7,132.8z"/>
                <path fill="#dedede" id="svg_6" d="m7545.249878,1550.7c-25,-17.3 -57.7,-63.4 -75,-105.7c-36.5,-92.3 -119.2,-165.3 -205.7,-182.6c-38.4,-5.8 -123,1.9 -203.8,23.1c-115.4,26.9 -157.7,28.8 -253.8,11.5c-211.5,-38.4 -392.2,-159.6 -488.3,-323c-73.1,-123 -69.2,-209.6 7.7,-278.8c34.6,-30.8 82.7,-55.7 107.7,-55.7c65.4,0 140.4,67.3 182.6,163.4c55.8,126.9 134.6,169.2 280.7,151.9c63.4,-7.7 194.2,-13.4 288.4,-15.4c153.8,0 184.6,5.8 284.5,55.8c188.4,94.2 340.3,288.4 340.3,432.6c0,124.9 -157.6,197.9 -265.3,122.9z"/>
            </g>
        </g>
        <text fill="#999" xml:space="preserve" text-anchor="start" font-family="Helvetica, Arial, sans-serif" font-size="111" id="svg_8" y="624.999957" x="310.51312" stroke-width="0" stroke="#000">Фото в</text>
  <text fill="#999" xml:space="preserve" text-anchor="start" font-family="Helvetica, Arial, sans-serif" font-size="111" id="svg_9" y="773.330573" x="190.270918" stroke-width="0" stroke="#000">разработке</text>
    </g>
</svg>